<svg width="29" height="30" viewBox="0 0 29 30" fill="none" xmlns="http://www.w3.org/2000/svg">
<g clip-path="url(#clip0_4907_3916)">
<path d="M29 15C29 6.99192 22.5081 0.5 14.5 0.5C6.49192 0.5 0 6.99181 0 15C0 22.2373 5.30247 28.2361 12.2344 29.3239V19.1914H8.55273V15H12.2344V11.8055C12.2344 8.17141 14.3992 6.16406 17.7112 6.16406C19.2977 6.16406 20.957 6.44727 20.957 6.44727V10.0156H19.1287C17.3273 10.0156 16.7656 11.1334 16.7656 12.2801V15H20.7871L20.1442 19.1914H16.7656V29.3239C23.6975 28.2361 29 22.2374 29 15Z" fill="#1877F2"/>
<path d="M20.1442 19.1914L20.7871 15H16.7656V12.2801C16.7656 11.1333 17.3274 10.0156 19.1287 10.0156H20.957V6.44727C20.957 6.44727 19.2977 6.16406 17.7112 6.16406C14.3992 6.16406 12.2344 8.17141 12.2344 11.8055V15H8.55273V19.1914H12.2344V29.3238C12.9839 29.4413 13.7414 29.5002 14.5 29.5C15.2586 29.5002 16.0161 29.4413 16.7656 29.3238V19.1914H20.1442Z" fill="white"/>
</g>
<defs>
<clipPath id="clip0_4907_3916">
<rect width="29" height="29" fill="white" transform="translate(0 0.5)"/>
</clipPath>
</defs>
</svg>
