<svg width="32" height="32" viewBox="0 0 32 32" fill="none" xmlns="http://www.w3.org/2000/svg">
<path d="M29.0738 13.389H27.9998V13.3337H15.9998V18.667H23.5352C22.4358 21.7717 19.4818 24.0003 15.9998 24.0003C11.5818 24.0003 7.99984 20.4183 7.99984 16.0003C7.99984 11.5823 11.5818 8.00033 15.9998 8.00033C18.0392 8.00033 19.8945 8.76966 21.3072 10.0263L25.0785 6.25499C22.6972 4.03566 19.5118 2.66699 15.9998 2.66699C8.6365 2.66699 2.6665 8.63699 2.6665 16.0003C2.6665 23.3637 8.6365 29.3337 15.9998 29.3337C23.3632 29.3337 29.3332 23.3637 29.3332 16.0003C29.3332 15.1063 29.2412 14.2337 29.0738 13.389Z" fill="#FFC107"/>
<path d="M4.2041 9.79433L8.58477 13.007C9.7701 10.0723 12.6408 8.00033 16.0001 8.00033C18.0394 8.00033 19.8948 8.76966 21.3074 10.0263L25.0788 6.25499C22.6974 4.03566 19.5121 2.66699 16.0001 2.66699C10.8788 2.66699 6.43743 5.55833 4.2041 9.79433Z" fill="#FF3D00"/>
<path d="M15.9999 29.3338C19.4439 29.3338 22.5732 28.0158 24.9392 25.8725L20.8125 22.3805C19.4289 23.4327 17.7382 24.0018 15.9999 24.0005C12.5319 24.0005 9.58722 21.7891 8.47788 18.7031L4.12988 22.0531C6.33655 26.3711 10.8179 29.3338 15.9999 29.3338Z" fill="#4CAF50"/>
<path d="M29.074 13.3883H28V13.333H16V18.6663H23.5353C23.0095 20.144 22.0622 21.4351 20.8107 22.3803L20.8127 22.379L24.9393 25.871C24.6473 26.1363 29.3333 22.6663 29.3333 15.9997C29.3333 15.1057 29.2413 14.233 29.074 13.3883Z" fill="#1976D2"/>
</svg>
