<svg width="27" height="26" viewBox="0 0 27 26" fill="none" xmlns="http://www.w3.org/2000/svg">
<g clip-path="url(#clip0_4907_3924)">
<path d="M20.6719 0H6.32812C2.8332 0 0 2.72826 0 6.09375V19.9062C0 23.2717 2.8332 26 6.32812 26H20.6719C24.1668 26 27 23.2717 27 19.9062V6.09375C27 2.72826 24.1668 0 20.6719 0Z" fill="url(#paint0_radial_4907_3924)"/>
<path d="M20.6719 0H6.32812C2.8332 0 0 2.72826 0 6.09375V19.9062C0 23.2717 2.8332 26 6.32812 26H20.6719C24.1668 26 27 23.2717 27 19.9062V6.09375C27 2.72826 24.1668 0 20.6719 0Z" fill="url(#paint1_radial_4907_3924)"/>
<path d="M13.5009 2.84375C10.6366 2.84375 10.2771 2.85584 9.15216 2.90509C8.02934 2.95466 7.26289 3.12579 6.59232 3.37695C5.89855 3.63634 5.31014 3.98338 4.72395 4.54807C4.13722 5.11266 3.77684 5.67927 3.50663 6.34705C3.24506 6.99298 3.06714 7.73134 3.01662 8.81207C2.96631 9.89544 2.95312 10.2418 2.95312 13.0001C2.95312 15.7584 2.96578 16.1035 3.01683 17.1868C3.06851 18.268 3.24622 19.0061 3.50684 19.6518C3.77641 20.3199 4.1368 20.8865 4.72321 21.451C5.3093 22.016 5.89771 22.3639 6.59095 22.6233C7.26205 22.8744 8.0286 23.0455 9.15121 23.0951C10.2762 23.1444 10.6355 23.1565 13.4997 23.1565C16.3643 23.1565 16.7227 23.1444 17.8476 23.0951C18.9705 23.0455 19.7377 22.8744 20.4088 22.6233C21.1023 22.3639 21.6899 22.016 22.2758 21.451C22.8626 20.8865 23.2228 20.3199 23.4932 19.6521C23.7524 19.0061 23.9304 18.2678 23.9832 17.187C24.0337 16.1038 24.0469 15.7584 24.0469 13.0001C24.0469 10.2418 24.0337 9.89564 23.9832 8.81227C23.9304 7.73104 23.7524 6.99309 23.4932 6.34735C23.2228 5.67927 22.8626 5.11266 22.2758 4.54807C21.6892 3.98318 21.1025 3.63614 20.4082 3.37705C19.7358 3.12579 18.969 2.95455 17.8462 2.90509C16.7211 2.85584 16.3629 2.84375 13.4977 2.84375H13.5009ZM12.5548 4.67401C12.8357 4.6736 13.149 4.67401 13.5009 4.67401C16.3171 4.67401 16.6508 4.68376 17.7628 4.73241C18.7912 4.7777 19.3493 4.94315 19.7211 5.08219C20.2133 5.26622 20.5642 5.4863 20.9331 5.84188C21.3023 6.19734 21.5307 6.53585 21.7223 7.00984C21.8667 7.36734 22.0388 7.90481 22.0856 8.89505C22.1361 9.96572 22.1471 10.2873 22.1471 12.9978C22.1471 15.7083 22.1361 16.0299 22.0856 17.1005C22.0385 18.0907 21.8667 18.6282 21.7223 18.9858C21.5312 19.4598 21.3023 19.7973 20.9331 20.1525C20.564 20.508 20.2135 20.728 19.7211 20.9121C19.3497 21.0518 18.7912 21.2168 17.7628 21.2621C16.651 21.3108 16.3171 21.3213 13.5009 21.3213C10.6847 21.3213 10.3509 21.3108 9.23917 21.2621C8.21085 21.2164 7.65271 21.051 7.28061 20.9119C6.7885 20.7278 6.43686 20.5078 6.06772 20.1523C5.69858 19.7969 5.47014 19.4592 5.2785 18.985C5.13411 18.6274 4.96209 18.0899 4.91527 17.0997C4.86475 16.029 4.85462 15.7075 4.85462 12.9952C4.85462 10.2831 4.86475 9.96318 4.91527 8.89251C4.9623 7.90227 5.13411 7.3648 5.2785 7.0068C5.46971 6.5328 5.69858 6.1943 6.06783 5.83883C6.43697 5.48336 6.7885 5.26327 7.28072 5.07884C7.6525 4.93919 8.21085 4.77415 9.23917 4.72865C10.2121 4.6863 10.5892 4.6736 12.5548 4.67147V4.67401ZM19.1309 6.36035C18.4321 6.36035 17.8652 6.90574 17.8652 7.5787C17.8652 8.25155 18.4321 8.79745 19.1309 8.79745C19.8296 8.79745 20.3965 8.25155 20.3965 7.5787C20.3965 6.90584 19.8296 6.35995 19.1309 6.35995V6.36035ZM13.5009 7.78436C10.5099 7.78436 8.08471 10.1197 8.08471 13.0001C8.08471 15.8805 10.5099 18.2147 13.5009 18.2147C16.4921 18.2147 18.9165 15.8805 18.9165 13.0001C18.9165 10.1198 16.4919 7.78436 13.5007 7.78436H13.5009ZM13.5009 9.61462C15.4425 9.61462 17.0166 11.1302 17.0166 13.0001C17.0166 14.8698 15.4425 16.3856 13.5009 16.3856C11.5593 16.3856 9.98536 14.8698 9.98536 13.0001C9.98536 11.1302 11.5593 9.61462 13.5009 9.61462Z" fill="white"/>
</g>
<defs>
<radialGradient id="paint0_radial_4907_3924" cx="0" cy="0" r="1" gradientUnits="userSpaceOnUse" gradientTransform="translate(7.17187 28.0025) rotate(-90) scale(25.7679 24.888)">
<stop stop-color="#FFDD55"/>
<stop offset="0.1" stop-color="#FFDD55"/>
<stop offset="0.5" stop-color="#FF543E"/>
<stop offset="1" stop-color="#C837AB"/>
</radialGradient>
<radialGradient id="paint1_radial_4907_3924" cx="0" cy="0" r="1" gradientUnits="userSpaceOnUse" gradientTransform="translate(-4.52261 1.87291) rotate(78.2575) scale(11.5358 49.2311)">
<stop stop-color="#3771C8"/>
<stop offset="0.128" stop-color="#3771C8"/>
<stop offset="1" stop-color="#6600FF" stop-opacity="0"/>
</radialGradient>
<clipPath id="clip0_4907_3924">
<rect width="27" height="26" fill="white"/>
</clipPath>
</defs>
</svg>
